<svg width="18" height="18" viewBox="0 0 18 18" fill="none" xmlns="http://www.w3.org/2000/svg">
<path d="M0 17.5156L1.25558 12.847C0.242987 11.0283 -0.0787253 8.90615 0.349482 6.86981C0.77769 4.83347 1.92709 3.0196 3.58678 1.76103C5.24646 0.502463 7.3051 -0.116373 9.38492 0.0180802C11.4647 0.152533 13.4262 1.03126 14.9095 2.493C16.3927 3.95475 17.2982 5.90146 17.4598 7.97593C17.6214 10.0504 17.0282 12.1135 15.7891 13.7865C14.5501 15.4596 12.7482 16.6305 10.7142 17.0843C8.68018 17.5381 6.55047 17.2444 4.71586 16.2571L0 17.5156ZM4.94325 14.5101L5.2349 14.6828C6.56375 15.4692 8.11582 15.7946 9.64925 15.6083C11.1827 15.4221 12.6113 14.7346 13.7126 13.6532C14.8138 12.5717 15.5258 11.1569 15.7375 9.62927C15.9492 8.10165 15.6488 6.547 14.8832 5.20761C14.1175 3.86822 12.9295 2.81932 11.5043 2.22436C10.0792 1.6294 8.49691 1.52181 7.00411 1.91834C5.51131 2.31488 4.19183 3.19328 3.25129 4.41664C2.31076 5.64001 1.80199 7.13963 1.80429 8.6818C1.80304 9.96052 2.15726 11.2145 2.82754 12.3041L3.01044 12.6052L2.3085 15.2109L4.94325 14.5101Z" fill="#445977"/>
<path fill-rule="evenodd" clip-rule="evenodd" d="M12.0218 9.88052C11.8509 9.74285 11.6507 9.64595 11.4365 9.59721C11.2224 9.54846 10.9999 9.54915 10.786 9.59923C10.4647 9.73247 10.2571 10.2358 10.0495 10.4875C10.0057 10.5479 9.94138 10.5902 9.86857 10.6065C9.79576 10.6229 9.71948 10.6122 9.65403 10.5764C8.4777 10.1164 7.49169 9.2729 6.85615 8.18286C6.80194 8.11484 6.77629 8.02848 6.78459 7.94195C6.79288 7.85542 6.83449 7.77549 6.90064 7.71897C7.1322 7.49011 7.30222 7.20666 7.39496 6.89482C7.41556 6.55085 7.33662 6.20823 7.16757 5.9078C7.03689 5.48663 6.78817 5.11159 6.4508 4.82703C6.2768 4.7489 6.08387 4.7227 5.89529 4.7516C5.70671 4.7805 5.53053 4.86325 5.388 4.98988C5.14058 5.203 4.94419 5.46881 4.8133 5.76774C4.68241 6.06667 4.62035 6.39111 4.63169 6.71715C4.63245 6.90025 4.65569 7.08256 4.70089 7.26001C4.81568 7.68635 4.9922 8.09368 5.22488 8.4691C5.39275 8.75668 5.57591 9.03508 5.77358 9.30312C6.41598 10.1835 7.22349 10.931 8.15128 11.5042C8.61686 11.7954 9.11446 12.0322 9.63426 12.2099C10.1742 12.4542 10.7704 12.548 11.3594 12.4813C11.6951 12.4306 12.0131 12.2983 12.2855 12.0961C12.5578 11.8938 12.7763 11.6279 12.9215 11.3216C13.0069 11.1365 13.0328 10.9297 12.9957 10.7294C12.9067 10.3197 12.358 10.0779 12.0218 9.88052Z" fill="#445977"/>
</svg>
