<svg width="14" height="18" viewBox="0 0 14 18" fill="none" xmlns="http://www.w3.org/2000/svg">
<path id="Vector" d="M13.3333 6.44996C13.3247 6.3734 13.3079 6.29799 13.2833 6.22496V6.14996C13.2433 6.06428 13.1898 5.98551 13.125 5.91663L8.125 0.916626C8.05611 0.851806 7.97735 0.79836 7.89167 0.758293H7.80833C7.7273 0.714962 7.64022 0.684061 7.55 0.666626H2.5C1.83696 0.666626 1.20107 0.930018 0.732233 1.39886C0.263392 1.8677 0 2.50358 0 3.16663V14.8333C0 15.4963 0.263392 16.1322 0.732233 16.6011C1.20107 17.0699 1.83696 17.3333 2.5 17.3333H10.8333C11.4964 17.3333 12.1323 17.0699 12.6011 16.6011C13.0699 16.1322 13.3333 15.4963 13.3333 14.8333V6.49996C13.3333 6.49996 13.3333 6.49996 13.3333 6.44996ZM8.33333 3.50829L10.4917 5.66663H9.16667C8.94565 5.66663 8.73369 5.57883 8.57741 5.42255C8.42113 5.26627 8.33333 5.05431 8.33333 4.83329V3.50829ZM11.6667 14.8333C11.6667 15.0543 11.5789 15.2663 11.4226 15.4225C11.2663 15.5788 11.0543 15.6666 10.8333 15.6666H2.5C2.27899 15.6666 2.06702 15.5788 1.91074 15.4225C1.75446 15.2663 1.66667 15.0543 1.66667 14.8333V3.16663C1.66667 2.94561 1.75446 2.73365 1.91074 2.57737C2.06702 2.42109 2.27899 2.33329 2.5 2.33329H6.66667V4.83329C6.66667 5.49633 6.93006 6.13222 7.3989 6.60106C7.86774 7.0699 8.50362 7.33329 9.16667 7.33329H11.6667V14.8333ZM7.74167 10.9083L7.5 11.1583V8.99996C7.5 8.77894 7.4122 8.56698 7.25592 8.4107C7.09964 8.25442 6.88768 8.16663 6.66667 8.16663C6.44565 8.16663 6.23369 8.25442 6.07741 8.4107C5.92113 8.56698 5.83333 8.77894 5.83333 8.99996V11.1583L5.59167 10.9083C5.43475 10.7514 5.22192 10.6632 5 10.6632C4.77808 10.6632 4.56525 10.7514 4.40833 10.9083C4.25141 11.0652 4.16326 11.278 4.16326 11.5C4.16326 11.7219 4.25141 11.9347 4.40833 12.0916L6.075 13.7583C6.15425 13.8342 6.24771 13.8936 6.35 13.9333C6.44975 13.9774 6.55761 14.0002 6.66667 14.0002C6.77573 14.0002 6.88358 13.9774 6.98333 13.9333C7.08563 13.8936 7.17908 13.8342 7.25833 13.7583L8.925 12.0916C9.08192 11.9347 9.17008 11.7219 9.17008 11.5C9.17008 11.278 9.08192 11.0652 8.925 10.9083C8.76808 10.7514 8.55525 10.6632 8.33333 10.6632C8.11141 10.6632 7.89859 10.7514 7.74167 10.9083Z" fill="#445977"/>
</svg>
