<svg width="15" height="15" viewBox="0 0 15 15" fill="none" xmlns="http://www.w3.org/2000/svg">
<path d="M3.47422 14.5922V5.13769H0.334481V14.5922H3.47455H3.47422ZM1.90501 3.84706C2.99967 3.84706 3.68117 3.12106 3.68117 2.21377C3.66068 1.28581 2.99967 0.580078 1.92583 0.580078C0.851242 0.580078 0.149414 1.28581 0.149414 2.21369C0.149414 3.12098 0.83067 3.84697 1.88444 3.84697H1.90476L1.90501 3.84706ZM5.21211 14.5922H8.35161V9.31294C8.35161 9.03074 8.3721 8.74781 8.45504 8.54625C8.68191 7.98145 9.19851 7.3968 10.0661 7.3968C11.2019 7.3968 11.6565 8.26373 11.6565 9.53484V14.5922H14.7959V9.17127C14.7959 6.26737 13.2472 4.91603 11.1815 4.91603C9.48799 4.91603 8.7442 5.86344 8.33096 6.50871H8.35186V5.13801H5.21228C5.25326 6.02496 5.21203 14.5925 5.21203 14.5925L5.21211 14.5922Z" fill="#445977"/>
</svg>
