<svg width="21" height="20" viewBox="0 0 21 20" fill="none" xmlns="http://www.w3.org/2000/svg">
<path fill-rule="evenodd" clip-rule="evenodd" d="M10.4822 0.0273743C5.04718 0.0273743 0.64502 4.41203 0.64502 9.82548C0.64502 14.1611 3.46093 17.8232 7.37122 19.1214C7.86309 19.2072 8.04753 18.9132 8.04753 18.656C8.04753 18.4233 8.03524 17.6517 8.03524 16.8311C5.56363 17.2843 4.92421 16.231 4.72747 15.6798C4.6168 15.3982 4.13724 14.5286 3.71915 14.2959C3.37485 14.1121 2.88299 13.659 3.70686 13.6467C4.48154 13.6345 5.03488 14.3571 5.21933 14.651C6.10468 16.133 7.51878 15.7166 8.08442 15.4594C8.1705 14.8225 8.42873 14.3938 8.71155 14.1489C6.52276 13.9039 4.23561 13.0589 4.23561 9.31108C4.23561 8.24553 4.6168 7.3637 5.24392 6.67784C5.14555 6.43288 4.80125 5.42858 5.3423 4.08134C5.3423 4.08134 6.16616 3.82414 8.04753 5.08565C8.83451 4.86519 9.67068 4.75496 10.5068 4.75496C11.343 4.75496 12.1792 4.86519 12.9661 5.08565C14.8475 3.81189 15.6714 4.08134 15.6714 4.08134C16.2124 5.42858 15.8681 6.43288 15.7698 6.67784C16.3969 7.3637 16.7781 8.23329 16.7781 9.31108C16.7781 13.0711 14.4786 13.9039 12.2898 14.1489C12.6464 14.4551 12.9539 15.043 12.9539 15.9615C12.9539 17.272 12.9416 18.3253 12.9416 18.656C12.9416 18.9132 13.126 19.2194 13.6179 19.1214C17.5036 17.8232 20.3195 14.1489 20.3195 9.82548C20.3195 4.41203 15.9173 0.0273743 10.4822 0.0273743Z" fill="#445977"/>
</svg>
