<svg width="194" height="100" viewBox="0 0 194 100" fill="none" xmlns="http://www.w3.org/2000/svg">
<path d="M162.826 99.5846C162.826 99.5846 183.877 101.236 190.361 88.9095C200.001 70.5816 181.265 55.8083 167.673 58.4679C138.057 64.2631 145.188 0.33001 97.6581 13.3781C84.2928 17.0469 48.1829 -4.74861 38.1116 30.1987C35.7152 38.5086 27.2316 39.424 14.9173 44.6965C-9.1893 55.0163 1.83299 99.7588 19.0578 99.9343C36.2827 100.11 162.826 99.5846 162.826 99.5846Z" fill="#EBF2F9"/>
<path d="M189.313 99.9999H4.30786C4.26414 99.9997 4.22225 99.9823 4.19134 99.9514C4.16042 99.9204 4.14298 99.8786 4.14282 99.8348C4.14298 99.7911 4.16042 99.7492 4.19134 99.7183C4.22225 99.6874 4.26414 99.67 4.30786 99.6698H189.313C189.356 99.67 189.398 99.6874 189.429 99.7183C189.46 99.7492 189.478 99.7911 189.478 99.8348C189.478 99.8786 189.46 99.9205 189.429 99.9514C189.398 99.9823 189.356 99.9997 189.313 99.9999Z" fill="#283250"/>
<path d="M159.588 58.2513C159.588 58.2513 157.854 58.6967 156.751 58.3642C155.648 58.0317 153.751 58.5777 153.445 58.9777C153.139 59.3777 153.252 59.5397 153.797 59.6784C154.343 59.817 156.275 60.6416 157.544 60.1643C158.813 59.687 160.47 59.6735 160.47 59.6735L159.588 58.2513Z" fill="#E49963"/>
<path d="M174.579 43.1838C174.579 43.1838 172.63 57.0325 169.404 58.2761C167.812 58.8896 160.776 60.2755 158.694 60.4147C158.694 60.4147 158.184 60.0012 158.309 58.3178C158.309 58.3178 165.68 55.6116 166.727 54.1398C168.286 51.9496 165.76 45.1911 167.716 43.1341C169.672 41.077 172.965 40.1917 174.579 43.1838Z" fill="#4A75CB"/>
<path d="M174.33 96.5729V93.5274H179.084C179.145 93.5273 179.205 93.5026 179.248 93.459C179.292 93.4153 179.317 93.3561 179.317 93.2943V92.8102C179.317 92.7484 179.292 92.6892 179.248 92.6456C179.205 92.6019 179.145 92.5773 179.084 92.5771H174.33V75.386C174.329 75.1537 174.236 74.931 174.072 74.7668C173.908 74.6025 173.685 74.5099 173.453 74.5093H172.512C172.28 74.5098 172.057 74.6023 171.893 74.7666C171.728 74.9308 171.636 75.1536 171.635 75.386V92.574H166.883C166.822 92.5742 166.762 92.5988 166.719 92.6425C166.675 92.6862 166.65 92.7454 166.65 92.8072V93.2912C166.65 93.353 166.675 93.4122 166.719 93.4559C166.762 93.4996 166.822 93.5242 166.883 93.5244H171.637V96.5729C168.197 96.833 165.44 98.0717 164.669 99.6717H181.301C180.525 98.0686 177.769 96.8299 174.33 96.5729Z" fill="#2B478B"/>
<path d="M173.922 72.3602C173.351 73.3104 172.716 74.2203 172.02 75.0836C169.926 77.7272 167.646 79.907 167.249 81.9678C167.159 82.4158 167.036 82.8567 166.881 83.2868C166.715 83.7586 166.51 84.2549 166.273 84.7678C165.385 86.6979 164.056 88.8611 162.729 90.8274C160.435 94.2263 158.278 97.0625 158.278 97.0625L154.323 96.8938C154.481 96.4975 156.206 91.8017 158.514 86.0691C159.452 83.7377 160.448 81.2647 161.41 78.8763L161.791 77.9223C162.086 77.1916 162.375 76.472 162.657 75.7713L166.55 66.0982C166.55 66.0982 175.212 62.8171 176.111 64.9429C176.852 66.6988 176.248 68.416 173.922 72.3602Z" fill="#163560"/>
<path d="M158.153 96.3428C158.153 96.3428 157.959 99.6227 157.328 99.6699C157.244 99.676 150.104 99.6699 150.104 99.6699C150.104 99.6699 150.161 98.6779 151.325 98.4748C152.489 98.2717 154.436 97.4545 155.141 95.9158C155.883 94.298 158.153 96.3428 158.153 96.3428Z" fill="#163560"/>
<path d="M167.313 87.0183C167.313 87.0183 170.064 88.7864 169.797 89.3607C169.761 89.4368 168.241 92.1601 168.241 92.1601L166.278 95.6252C166.278 95.6252 165.453 95.1344 165.843 94.0197C166.234 92.9049 166.469 90.8049 165.47 89.4398C164.42 88.003 167.313 87.0183 167.313 87.0183Z" fill="#163560"/>
<path d="M163.659 64.5054C163.659 64.5054 152.718 71.3153 151.504 75.8663C150.291 80.4173 165.967 90.1255 165.967 90.1255C165.967 90.1255 167.685 88.6089 167.991 87.496C167.991 87.496 160.905 79.0075 159.368 77.1044C158.424 75.9356 173.326 73.0589 175.146 70.2269C176.966 67.395 176.312 65.0121 176.312 65.0121L163.659 64.5054Z" fill="#1C468A"/>
<path d="M184.107 73.2394H161.857C161.41 73.2394 161.048 73.6017 161.048 74.0486V78.4984C161.048 78.9453 161.41 79.3076 161.857 79.3076H184.107C184.554 79.3076 184.917 78.9453 184.917 78.4984V74.0486C184.917 73.6017 184.554 73.2394 184.107 73.2394Z" fill="#EE9849"/>
<path d="M173.883 40.5707C173.883 40.5707 169.566 42.9842 166.961 42.3106C167.416 41.7133 167.978 41.2047 168.617 40.8099C168.56 40.5565 168.51 40.3191 168.467 40.0958C168.218 38.824 168.173 38.0841 168.173 38.0841L170.162 36.3049L171.5 36.5884C171.526 36.7197 171.554 36.8473 171.586 36.9724C172.207 39.4443 173.883 40.5707 173.883 40.5707Z" fill="#E49963"/>
<path d="M176.641 53.107C176.268 58.1249 176.759 65.7557 176.334 67.0772C175.966 68.2177 171.807 67.5398 170.146 67.1594C169.532 67.0183 168.786 66.8171 168.018 66.579C165.87 65.9146 163.534 64.9661 163.283 64.2618C163.274 64.2353 163.266 64.2083 163.261 64.1808C163.256 64.163 163.253 64.1452 163.251 64.1281C163.241 64.0475 163.245 63.9658 163.265 63.8869C163.348 63.528 163.67 63.1397 163.708 62.2507C163.751 61.2587 163.745 60.0899 163.782 58.8335C163.782 58.6918 163.786 58.5372 163.801 58.3967V58.3451V58.2648C163.837 56.8635 163.911 55.3899 163.996 53.9291C164.05 53.0088 164.112 52.1021 164.184 51.2297C164.371 48.9818 164.623 46.983 164.957 45.7197C165.502 43.6596 166.705 42.316 167.8 41.3313L168.591 40.6522C169.475 40.8454 170.52 40.7172 171.464 40.2693C172.486 39.7841 172.84 39.4362 173.018 39.5675C175.383 41.3902 177.082 46.9731 176.641 53.107Z" fill="#739AF0"/>
<path d="M168.019 66.579C165.872 65.9146 163.535 64.9661 163.284 64.2618C163.275 64.2353 163.268 64.2083 163.262 64.1808C163.261 64.1628 163.258 64.145 163.252 64.1281C163.242 64.0475 163.247 63.9658 163.266 63.8869C163.35 63.528 163.672 63.1397 163.71 62.2507C163.752 61.2587 163.746 60.0899 163.783 58.8335C163.783 58.6918 163.787 58.5372 163.802 58.3967V58.3451V58.2648L171.907 54.5892C171.907 54.5892 172.376 61.1194 168.019 66.579Z" fill="#4A75CB"/>
<path d="M171.586 36.9695C171.291 37.7137 170.41 39.4683 168.467 40.0984C168.218 38.8266 168.174 38.0867 168.174 38.0867L170.163 36.3075L171.5 36.5909C171.526 36.7167 171.554 36.8443 171.586 36.9695Z" fill="#D68D5D"/>
<path d="M167.387 38.0652C167.387 38.0652 171.655 38.5462 171.913 35.8835C172.172 33.2209 172.898 31.4902 170.184 31.0699C167.47 30.6497 166.84 31.6147 166.538 32.481C166.235 33.3473 166.283 37.8713 167.387 38.0652Z" fill="#E49963"/>
<path d="M171.896 36.0676C171.896 36.0676 171.624 32.5332 167.74 32.1669C165.078 31.9166 166.562 29.6258 166.846 29.2607C166.846 29.2607 168.885 29.5405 170.975 29.8859C175.361 30.6105 172.326 35.5173 171.896 36.0676Z" fill="#2B478B"/>
<path d="M161.64 60.9669L151.064 61.1932L148.057 51.9391L147.684 52.0606L150.862 61.843L161.654 61.6123L161.64 60.9669Z" fill="#4A75CB"/>
<path d="M160.481 60.3802C160.481 60.3802 158.806 61.014 157.673 60.8054C156.541 60.5968 154.715 61.3484 154.455 61.7815C154.196 62.2146 154.325 62.3613 154.885 62.4392C155.445 62.5171 157.453 63.1232 158.663 62.5091C159.873 61.895 161.516 61.695 161.516 61.695L160.481 60.3802Z" fill="#E49963"/>
<path d="M173.718 43.7497C173.718 43.7497 173.309 57.7285 170.239 59.3169C168.724 60.1009 161.884 62.2556 159.831 62.6237C159.831 62.6237 159.279 62.2685 159.218 60.5819C159.218 60.5819 166.246 57.0794 167.124 55.5009C168.432 53.1523 165.176 46.7136 166.893 44.4534C168.61 42.1932 171.785 40.954 173.718 43.7497Z" fill="#739AF0"/>
<path d="M49.7787 28.119V8.9076C49.7787 8.69861 49.8199 8.49167 49.8998 8.29858C49.9798 8.1055 50.097 7.93006 50.2448 7.78228C50.3926 7.6345 50.568 7.51728 50.7611 7.4373C50.9542 7.35732 51.1611 7.31616 51.3701 7.31616H62.9452C63.3673 7.31616 63.7721 7.48383 64.0705 7.78228C64.369 8.08074 64.5366 8.48552 64.5366 8.9076V28.119" stroke="#C9D7ED" stroke-width="2" stroke-miterlimit="10"/>
<path d="M49.8284 18.2701C50.7717 18.2701 51.5364 17.5054 51.5364 16.5621C51.5364 15.6188 50.7717 14.8541 49.8284 14.8541C48.8851 14.8541 48.1204 15.6188 48.1204 16.5621C48.1204 17.5054 48.8851 18.2701 49.8284 18.2701Z" fill="#0E2A4A" stroke="#C9D7ED" stroke-width="2" stroke-miterlimit="10"/>
<path d="M50.6596 16.5488C50.6596 16.715 50.6104 16.8775 50.518 17.0157C50.4256 17.1539 50.2944 17.2617 50.1408 17.3253C49.9872 17.3889 49.8182 17.4055 49.6552 17.3731C49.4921 17.3407 49.3424 17.2606 49.2248 17.1431C49.1073 17.0255 49.0272 16.8758 48.9948 16.7127C48.9624 16.5497 48.979 16.3807 49.0426 16.2271C49.1062 16.0735 49.214 15.9423 49.3522 15.8499C49.4904 15.7575 49.6529 15.7083 49.8191 15.7083C49.9295 15.7082 50.0389 15.7299 50.1409 15.7721C50.2429 15.8143 50.3356 15.8762 50.4137 15.9543C50.4917 16.0323 50.5536 16.125 50.5958 16.227C50.638 16.329 50.6597 16.4384 50.6596 16.5488Z" fill="white"/>
<path d="M95.4708 80.4593L95.1303 83.0667C95.1303 83.4387 95.0571 83.8071 94.9147 84.1509C94.7723 84.4946 94.5636 84.8069 94.3005 85.07C94.0374 85.3331 93.7251 85.5418 93.3814 85.6842C93.0376 85.8266 92.6692 85.8998 92.2972 85.8998H83.0332C82.3823 85.8998 81.7582 85.6413 81.2979 85.1811C80.8377 84.7209 80.5792 84.0967 80.5792 83.4458V74.761H84.1375" stroke="#C9D7ED" stroke-width="2" stroke-miterlimit="10"/>
<path d="M87.1468 86.0961C87.147 86.4339 87.0469 86.7642 86.8593 87.0452C86.6716 87.3262 86.4049 87.5452 86.0928 87.6746C85.7806 87.8039 85.4372 87.8378 85.1058 87.7719C84.7744 87.706 84.47 87.5433 84.2311 87.3044C83.9922 87.0655 83.8295 86.7611 83.7636 86.4297C83.6977 86.0984 83.7316 85.7549 83.861 85.4428C83.9903 85.1306 84.2093 84.8639 84.4903 84.6763C84.7713 84.4886 85.1016 84.3886 85.4395 84.3887C85.8922 84.3888 86.3264 84.5688 86.6466 84.8889C86.9668 85.2091 87.1467 85.6433 87.1468 86.0961Z" fill="#0E2A4A" stroke="#C9D7ED" stroke-width="2" stroke-miterlimit="10"/>
<path d="M86.2683 86.0818C86.2683 86.2479 86.2191 86.4103 86.1268 86.5484C86.0345 86.6866 85.9033 86.7942 85.7499 86.8578C85.5964 86.9214 85.4275 86.938 85.2646 86.9056C85.1017 86.8732 84.952 86.7932 84.8346 86.6757C84.7171 86.5583 84.6371 86.4086 84.6047 86.2457C84.5723 86.0828 84.5889 85.9139 84.6525 85.7604C84.7161 85.607 84.8237 85.4758 84.9618 85.3835C85.1 85.2912 85.2623 85.2419 85.4285 85.2419C85.5388 85.2419 85.648 85.2637 85.7499 85.3059C85.8518 85.3481 85.9444 85.4099 86.0223 85.4879C86.1003 85.5659 86.1622 85.6585 86.2044 85.7604C86.2466 85.8623 86.2683 85.9715 86.2683 86.0818Z" fill="white"/>
<path d="M105.216 32.1V49.3181C105.216 50.077 104.915 50.8048 104.378 51.3414C103.842 51.878 103.114 52.1795 102.355 52.1795H94.4592" stroke="#C9D7ED" stroke-width="2" stroke-miterlimit="10"/>
<path d="M106.821 42.1045C106.821 42.4423 106.721 42.7726 106.533 43.0535C106.345 43.3344 106.078 43.5533 105.766 43.6825C105.454 43.8118 105.111 43.8456 104.779 43.7796C104.448 43.7137 104.144 43.5509 103.905 43.312C103.666 43.0731 103.503 42.7687 103.438 42.4373C103.372 42.106 103.406 41.7625 103.535 41.4504C103.664 41.1384 103.883 40.8716 104.164 40.684C104.445 40.4964 104.776 40.3964 105.113 40.3965C105.338 40.3965 105.56 40.4407 105.767 40.5265C105.974 40.6124 106.162 40.7382 106.321 40.8968C106.48 41.0554 106.605 41.2437 106.691 41.4509C106.777 41.6581 106.821 41.8802 106.821 42.1045Z" fill="#0E2A4A" stroke="#C9D7ED" stroke-width="2" stroke-miterlimit="10"/>
<path d="M105.945 42.0936C105.945 42.2596 105.895 42.422 105.803 42.56C105.71 42.698 105.579 42.8056 105.426 42.8691C105.272 42.9326 105.103 42.9491 104.941 42.9166C104.778 42.8841 104.628 42.8041 104.511 42.6866C104.393 42.5691 104.313 42.4195 104.281 42.2566C104.249 42.0937 104.265 41.9248 104.329 41.7714C104.392 41.618 104.5 41.4868 104.638 41.3946C104.776 41.3023 104.939 41.2531 105.105 41.2531C105.215 41.2531 105.324 41.2748 105.426 41.317C105.528 41.3593 105.621 41.4212 105.699 41.4993C105.777 41.5773 105.839 41.67 105.881 41.772C105.923 41.8739 105.945 41.9832 105.945 42.0936Z" fill="white"/>
<path d="M68.5631 67.5312H55.853V83.4193H68.5631V67.5312Z" fill="#C9C9C9"/>
<path d="M100.728 24.9846V73.3291C100.728 73.5313 100.689 73.7315 100.611 73.9184C100.534 74.1052 100.421 74.275 100.278 74.4181C100.135 74.5611 99.9654 74.6747 99.7786 74.7521C99.5918 74.8296 99.3916 74.8695 99.1894 74.8696H25.2408C25.0387 74.8694 24.8386 74.8295 24.6519 74.7519C24.4652 74.6744 24.2956 74.5609 24.1527 74.4179C24.0099 74.2748 23.8967 74.105 23.8195 73.9182C23.7423 73.7314 23.7026 73.5312 23.7028 73.3291V24.9846C23.7024 24.7824 23.742 24.582 23.8191 24.3951C23.8962 24.2081 24.0095 24.0382 24.1523 23.895C24.2951 23.7518 24.4648 23.6382 24.6516 23.5606C24.8383 23.483 25.0386 23.443 25.2408 23.4429H99.1894C99.3917 23.443 99.592 23.4829 99.7789 23.5605C99.9657 23.638 100.135 23.7516 100.278 23.8948C100.421 24.038 100.535 24.2079 100.612 24.3949C100.689 24.5819 100.728 24.7823 100.728 24.9846Z" fill="#E6E6E6"/>
<path d="M100.728 24.9846V63.8608H23.7028V24.9846C23.7024 24.7824 23.742 24.582 23.8191 24.3951C23.8962 24.2081 24.0095 24.0382 24.1523 23.895C24.2951 23.7518 24.4648 23.6382 24.6516 23.5606C24.8383 23.483 25.0386 23.443 25.2408 23.4429H99.1894C99.3917 23.443 99.592 23.4829 99.7789 23.5605C99.9657 23.638 100.135 23.7516 100.278 23.8948C100.421 24.038 100.535 24.2079 100.612 24.3949C100.689 24.5819 100.728 24.7823 100.728 24.9846Z" fill="#101010"/>
<path d="M75.3343 84.6469H49.4326C49.4403 84.1695 49.6355 83.7144 49.976 83.3796C50.3164 83.0449 50.7749 82.8575 51.2523 82.8579H73.5147C73.9921 82.8575 74.4505 83.0449 74.791 83.3796C75.1314 83.7144 75.3266 84.1695 75.3343 84.6469Z" fill="#E6E6E6"/>
<path d="M97.6563 27.1061V60.2969C97.6563 60.5159 97.5693 60.7259 97.4144 60.8808C97.2595 61.0356 97.0495 61.1226 96.8305 61.1226H27.2531C27.1448 61.1226 27.0375 61.1013 26.9375 61.0597C26.8374 61.0182 26.7466 60.9573 26.6701 60.8806C26.5936 60.8039 26.533 60.7129 26.4918 60.6127C26.4505 60.5125 26.4295 60.4052 26.4298 60.2969V27.1061C26.4295 26.9977 26.4505 26.8903 26.4918 26.7901C26.533 26.6899 26.5936 26.5988 26.6701 26.5221C26.7465 26.4453 26.8374 26.3844 26.9375 26.3428C27.0375 26.3012 27.1448 26.2797 27.2531 26.2797H96.8305C97.0496 26.2798 97.2596 26.367 97.4144 26.5219C97.5693 26.6769 97.6563 26.887 97.6563 27.1061Z" fill="#222C39"/>
<path d="M63.993 68.8693C63.9932 69.208 63.8928 69.5391 63.7047 69.8208C63.5166 70.1025 63.2492 70.3221 62.9363 70.4517C62.6234 70.5814 62.279 70.6154 61.9468 70.5493C61.6146 70.4833 61.3095 70.3202 61.0699 70.0807C60.8304 69.8412 60.6673 69.536 60.6013 69.2038C60.5352 68.8716 60.5692 68.5272 60.6989 68.2143C60.8286 67.9014 61.0481 67.634 61.3298 67.4459C61.6115 67.2578 61.9426 67.1575 62.2813 67.1576C62.5061 67.1576 62.7287 67.2019 62.9364 67.2879C63.144 67.3739 63.3327 67.5 63.4917 67.6589C63.6506 67.8179 63.7767 68.0066 63.8627 68.2142C63.9488 68.4219 63.993 68.6445 63.993 68.8693Z" fill="#C9C9C9"/>
<path d="M97.6562 27.1061V31.3049H26.4279V27.1061C26.4276 26.9977 26.4487 26.8903 26.4899 26.7901C26.5311 26.6899 26.5917 26.5988 26.6682 26.5221C26.7446 26.4453 26.8355 26.3844 26.9356 26.3428C27.0356 26.3012 27.1429 26.2797 27.2512 26.2797H96.8304C97.0495 26.2798 97.2596 26.367 97.4144 26.5219C97.5692 26.6769 97.6562 26.887 97.6562 27.1061Z" fill="white"/>
<path d="M89.742 28.9176C89.7421 29.0459 89.7041 29.1714 89.6329 29.2781C89.5617 29.3849 89.4605 29.4681 89.3419 29.5173C89.2234 29.5664 89.093 29.5793 88.9671 29.5543C88.8413 29.5293 88.7257 29.4675 88.6349 29.3768C88.5442 29.2861 88.4824 29.1705 88.4574 29.0446C88.4324 28.9188 88.4453 28.7883 88.4945 28.6698C88.5436 28.5513 88.6269 28.45 88.7336 28.3788C88.8403 28.3076 88.9658 28.2697 89.0941 28.2698C89.2659 28.2698 89.4307 28.338 89.5522 28.4595C89.6737 28.581 89.742 28.7458 89.742 28.9176Z" fill="#FF8500"/>
<path d="M91.9408 29.5662C92.2989 29.5662 92.5893 29.2759 92.5893 28.9178C92.5893 28.5596 92.2989 28.2693 91.9408 28.2693C91.5826 28.2693 91.2923 28.5596 91.2923 28.9178C91.2923 29.2759 91.5826 29.5662 91.9408 29.5662Z" fill="#0097E5"/>
<path d="M94.7875 29.5662C95.1456 29.5662 95.4359 29.2759 95.4359 28.9178C95.4359 28.5596 95.1456 28.2693 94.7875 28.2693C94.4293 28.2693 94.139 28.5596 94.139 28.9178C94.139 29.2759 94.4293 29.5662 94.7875 29.5662Z" fill="#00ABFF"/>
<path d="M35.6158 33.9301H30.4918V35.3767H35.6158V33.9301Z" fill="#0097E5"/>
<path d="M49.6308 34.0146H37.3508V35.3766H49.6308V34.0146Z" fill="#0097E5"/>
<path d="M35.6158 37.6345H30.4918V39.0812H35.6158V37.6345Z" fill="#FFDA14"/>
<path d="M46.3387 37.7191H37.3508V39.0811H46.3387V37.7191Z" fill="#00AC7F"/>
<path d="M60.2653 37.7191H48.151V39.0811H60.2653V37.7191Z" fill="#0097E5"/>
<path d="M46.3387 40.9971H37.3508V42.3591H46.3387V40.9971Z" fill="#0097E5"/>
<path d="M60.2653 40.9971H48.151V42.3591H60.2653V40.9971Z" fill="#00ABFF"/>
<path d="M46.3387 44.2755H37.3508V45.6375H46.3387V44.2755Z" fill="#0097E5"/>
<path d="M60.2653 44.2755H48.151V45.6375H60.2653V44.2755Z" fill="#0097E5"/>
<path d="M35.6158 47.4697H30.4918V48.9164H35.6158V47.4697Z" fill="#FFDA14"/>
<path d="M46.3387 47.5536H37.3508V48.9156H46.3387V47.5536Z" fill="#00AC7F"/>
<path d="M46.3387 50.8323H37.3508V52.1943H46.3387V50.8323Z" fill="#0097E5"/>
<path d="M60.2653 50.8323H48.151V52.1943H60.2653V50.8323Z" fill="#0097E5"/>
<path d="M46.3387 54.1102H37.3508V55.4722H46.3387V54.1102Z" fill="#0097E5"/>
<path d="M60.2653 54.1102H48.151V55.4722H60.2653V54.1102Z" fill="#0097E5"/>
<path d="M46.3387 57.3887H37.3508V58.7507H46.3387V57.3887Z" fill="#0097E5"/>
<path d="M60.2653 57.3887H48.151V58.7507H60.2653V57.3887Z" fill="#0097E5"/>
<path d="M69.1219 33.9301H63.9979V35.3767H69.1219V33.9301Z" fill="#0097E5"/>
<path d="M83.1369 34.0146H70.8569V35.3766H83.1369V34.0146Z" fill="#0097E5"/>
<path d="M69.1219 37.6345H63.9979V39.0812H69.1219V37.6345Z" fill="#FFDA14"/>
<path d="M79.8448 37.7191H70.8569V39.0811H79.8448V37.7191Z" fill="#00AC7F"/>
<path d="M93.7721 37.7191H81.6578V39.0811H93.7721V37.7191Z" fill="#0097E5"/>
<path d="M79.8448 40.9971H70.8569V42.3591H79.8448V40.9971Z" fill="#0097E5"/>
<path d="M93.7721 40.9971H81.6578V42.3591H93.7721V40.9971Z" fill="#00ABFF"/>
<path d="M79.8448 44.2755H70.8569V45.6375H79.8448V44.2755Z" fill="#0097E5"/>
<path d="M93.7721 44.2755H81.6578V45.6375H93.7721V44.2755Z" fill="#0097E5"/>
<path d="M69.1219 47.4697H63.9979V48.9164H69.1219V47.4697Z" fill="#FFDA14"/>
<path d="M79.8448 47.5536H70.8569V48.9156H79.8448V47.5536Z" fill="#00AC7F"/>
<path d="M93.7721 47.5536H81.6578V48.9156H93.7721V47.5536Z" fill="#0097E5"/>
<path d="M93.7721 50.8323H81.6578V52.1943H93.7721V50.8323Z" fill="#0097E5"/>
<path d="M79.8448 54.1102H70.8569V55.4722H79.8448V54.1102Z" fill="#0097E5"/>
<path d="M93.7721 54.1102H81.6578V55.4722H93.7721V54.1102Z" fill="#0097E5"/>
<path d="M79.8448 57.3887H70.8569V58.7507H79.8448V57.3887Z" fill="#0097E5"/>
<path d="M93.7721 57.3887H81.6578V58.7507H93.7721V57.3887Z" fill="#0097E5"/>
<path d="M98.9427 31.3711L97.5476 15.7089H112.885L111.49 31.365L105.204 33.1092L98.9427 31.3711Z" fill="#E44D26"/>
<path d="M105.216 31.7804L110.293 30.3731L111.49 16.99H105.216V31.7804Z" fill="#F16529"/>
<path d="M105.217 22.7998H102.672L102.497 20.8329H105.217V18.9144H105.21H100.399L100.446 19.4255L100.916 24.7188H105.217V22.7998Z" fill="#EBEBEB"/>
<path d="M105.216 27.7863L105.21 27.7925L103.069 27.209L102.931 25.6808H101.89H101.006L101.27 28.6943L105.21 29.7895L105.216 29.7833V27.7863Z" fill="#EBEBEB"/>
<path d="M105.21 22.7997V24.7187H107.574L107.351 27.209L105.21 27.7863V29.7894L109.144 28.6943L109.174 28.3697L109.625 23.3169L109.673 22.7997H109.156H105.21Z" fill="white"/>
<path d="M105.21 18.9144V20.1052V20.8273V20.8329H109.842H109.848L109.89 20.3997L109.974 19.4255L110.022 18.9144H105.21Z" fill="white"/>
<path d="M88.8769 81.8311L87.4818 66.1688H102.82L101.424 81.8256L95.1384 83.5698L88.8769 81.8311Z" fill="#1F72B5"/>
<path d="M95.1507 82.2402L100.227 80.8328L101.424 67.4497H95.1507V82.2402Z" fill="#51A3DC"/>
<path d="M90.164 71.0644L89.9775 69.2539H100.323L100.203 71.3533L95.8304 73.284H100.023L99.5716 79.2388L95.3427 80.3756L90.9579 79.3111L90.6874 76.2915H92.6242L92.7328 77.8854L95.2709 78.3608L97.6163 77.6387L97.7249 75.0884H90.5193L90.3868 73.1939L95.1506 71.1067L90.164 71.0644Z" fill="#EBEBEB"/>
<path d="M90.3867 73.194L90.5192 75.0885H95.1506V71.1068L90.3867 73.194Z" fill="#CECECE"/>
<path d="M92.7328 77.8854L92.6242 76.2915H90.6874L90.9579 79.3112L95.1507 80.3272V78.3363L92.7328 77.8854Z" fill="#CECECE"/>
<path d="M89.9775 69.2539L90.164 71.0644L95.1506 71.1067V69.2539H89.9775Z" fill="#CECECE"/>
<path d="M72.2054 0H56.8677V15.3377H72.2054V0Z" fill="#F7DF1E"/>
<path d="M60.9016 12.8161L62.074 12.1063C62.301 12.5093 62.5034 12.8425 62.9985 12.8425C63.4734 12.8425 63.7715 12.6584 63.7715 11.9351V7.03931H65.2127V11.9603C65.2127 13.4517 64.339 14.1327 63.0617 14.1327C61.9102 14.1327 61.242 13.5357 60.9016 12.813" fill="black"/>
<path d="M65.9986 12.6611L67.171 11.9801C67.4821 12.4844 67.8815 12.8543 68.5913 12.8543C69.1882 12.8543 69.5729 12.5562 69.5729 12.1439C69.5729 11.6482 69.1821 11.4758 68.5226 11.1862L68.1612 11.0304C67.1232 10.5893 66.4299 10.0303 66.4299 8.85793C66.4299 7.77816 67.2532 6.95605 68.5391 6.95605C69.4551 6.95605 70.1152 7.27569 70.5901 8.10761L69.468 8.82603C69.2226 8.38492 68.9551 8.20884 68.5434 8.20884C68.1318 8.20884 67.8545 8.47756 67.8545 8.82603C67.8545 9.25917 68.1232 9.43586 68.741 9.70028L69.1023 9.8555C70.3293 10.3813 71.0183 10.9144 71.0183 12.1206C71.0183 13.4194 69.9974 14.1292 68.6318 14.1292C67.287 14.1378 66.4231 13.4991 66.0011 12.6629" fill="black"/>
</svg>
